<svg xmlns="http://www.w3.org/2000/svg" width="24" height="24" viewBox="0 0 24 24"><g transform="translate(0 0.001)"><path d="M10-.5A10.5,10.5,0,1,1-.5,10,10.512,10.512,0,0,1,10-.5Zm0,20A9.5,9.5,0,1,0,.5,10,9.511,9.511,0,0,0,10,19.5Z" transform="translate(0.5 0.499)"/><path d="M5.929,6.429a.5.5,0,0,1-.354-.146L-.354.354a.5.5,0,0,1,0-.707.5.5,0,0,1,.707,0L6.283,5.575a.5.5,0,0,1-.354.854Z" transform="translate(17.571 17.57)"/><path d="M10,.5H0A.5.5,0,0,1-.5,0,.5.5,0,0,1,0-.5H10a.5.5,0,0,1,.5.5A.5.5,0,0,1,10,.5Z" transform="translate(5.5 10.499)"/></g></svg>