<svg xmlns="http://www.w3.org/2000/svg" width="24" height="24" viewBox="0 0 24 24"><path d="M17.2,24H6.8a2.5,2.5,0,0,1-2.486-2.239L2.5,4.552a.5.5,0,0,1,.995-.1L5.308,21.657A1.5,1.5,0,0,0,6.8,23H17.2a1.5,1.5,0,0,0,1.491-1.343L20.5,4.448a.5.5,0,1,1,.994.1L19.685,21.761A2.5,2.5,0,0,1,17.2,24Z"/><path d="M23,.5H0A.5.5,0,0,1-.5,0,.5.5,0,0,1,0-.5H23a.5.5,0,0,1,.5.5A.5.5,0,0,1,23,.5Z" transform="translate(0.5 4.5)"/><path d="M16.5,5a.5.5,0,0,1-.5-.5v-3a.5.5,0,0,0-.5-.5h-7a.5.5,0,0,0-.5.5v3a.5.5,0,0,1-1,0v-3A1.5,1.5,0,0,1,8.5,0h7A1.5,1.5,0,0,1,17,1.5v3A.5.5,0,0,1,16.5,5Z"/><path d="M0,11a.5.5,0,0,1-.5-.5V0A.5.5,0,0,1,0-.5.5.5,0,0,1,.5,0V10.5A.5.5,0,0,1,0,11Z" transform="translate(12 9)"/><path d="M0,11H-.024A.5.5,0,0,1-.5,10.476L0-.024A.5.5,0,0,1,.524-.5.5.5,0,0,1,1,.024l-.5,10.5A.5.5,0,0,1,0,11Z" transform="translate(16 9)"/><path d="M.5,11a.5.5,0,0,1-.5-.476L-.5.024A.5.5,0,0,1-.024-.5.5.5,0,0,1,.5-.024l.5,10.5A.5.5,0,0,1,.524,11Z" transform="translate(7.5 9)"/></svg>