<svg xmlns="http://www.w3.org/2000/svg" width="24" height="24.001" viewBox="0 0 24 24.001"><g transform="translate(0 0.001)"><path d="M21.5,17h-3a.5.5,0,0,1,0-1h3A1.509,1.509,0,0,0,23,14.5v-6A1.509,1.509,0,0,0,21.5,7H2.5A1.509,1.509,0,0,0,1,8.5v6A1.509,1.509,0,0,0,2.5,16h3a.5.5,0,0,1,0,1h-3A2.512,2.512,0,0,1,0,14.5v-6A2.512,2.512,0,0,1,2.5,6h19A2.512,2.512,0,0,1,24,8.5v6A2.512,2.512,0,0,1,21.5,17Z"/><path d="M18.5,5a.5.5,0,0,1-.5-.5V3.914a.5.5,0,0,0-.146-.353L15.439,1.146A.5.5,0,0,0,15.086,1H6V4.5a.5.5,0,0,1-1,0V.5A.5.5,0,0,1,5.5,0h9.586a1.49,1.49,0,0,1,1.06.439l2.414,2.414A1.49,1.49,0,0,1,19,3.914V4.5A.5.5,0,0,1,18.5,5Z"/><path d="M17.5,24H6.5A1.5,1.5,0,0,1,5,22.5v-9a.5.5,0,0,1,.5-.5h13a.5.5,0,0,1,.5.5v9A1.5,1.5,0,0,1,17.5,24ZM6,14v8.5a.5.5,0,0,0,.5.5h11a.5.5,0,0,0,.5-.5V14Z"/><path d="M1-.5A1.5,1.5,0,1,1-.5,1,1.5,1.5,0,0,1,1-.5Zm0,2A.5.5,0,1,0,.5,1,.5.5,0,0,0,1,1.5Z" transform="translate(2.5 8.499)"/><path d="M18.5,5h-4a.5.5,0,0,1-.5-.5V.5a.5.5,0,0,1,1,0V4h3.5a.5.5,0,0,1,0,1Z"/><path d="M16.458,22H7.625a.5.5,0,0,1-.444-.73l1.937-3.745a.5.5,0,0,1,.762-.157l2.012,1.653,2.009-3a.5.5,0,0,1,.878.088l2.142,5.2a.5.5,0,0,1-.462.69ZM8.447,21h7.265l-1.5-3.643-1.795,2.679a.5.5,0,0,1-.733.108l-1.96-1.611Z"/><path d="M8.25,16.5A.75.75,0,1,1,9,15.75.751.751,0,0,1,8.25,16.5Z"/></g></svg>