<svg xmlns="http://www.w3.org/2000/svg" width="25.133" height="25.132" viewBox="0 0 25.133 25.132"><g transform="translate(-1905.995 -5500.995)"><g transform="translate(1906.495 5501.495)"><path d="M0,24.5A.5.5,0,0,1-.5,24V0A.5.5,0,0,1,0-.5.5.5,0,0,1,.5,0V24A.5.5,0,0,1,0,24.5Z" transform="translate(12 0)"/><path d="M24,.5H0A.5.5,0,0,1-.5,0,.5.5,0,0,1,0-.5H24a.5.5,0,0,1,.5.5A.5.5,0,0,1,24,.5Z" transform="translate(0 12)"/><path d="M4.274,16.047a.5.5,0,0,1-.354-.146L.646,12.626a.5.5,0,0,1,0-.707L3.921,8.644a.5.5,0,0,1,.707.707L1.707,12.272l2.921,2.921a.5.5,0,0,1-.354.854Z" transform="translate(-0.88 -0.146)"/><path d="M12.274,23.772a.5.5,0,0,1-.354-.146L8.646,20.352a.5.5,0,1,1,.707-.707l2.921,2.921L15.2,19.644a.5.5,0,1,1,.707.707l-3.274,3.274A.5.5,0,0,1,12.274,23.772Z" transform="translate(-0.148 0.86)"/><path d="M20,16.047a.5.5,0,0,1-.354-.854l2.921-2.921L19.646,9.352a.5.5,0,0,1,.707-.707l3.274,3.274a.5.5,0,0,1,0,.707L20.354,15.9A.5.5,0,0,1,20,16.047Z" transform="translate(0.858 -0.146)"/><path d="M15.549,4.772a.5.5,0,0,1-.354-.146L12.274,1.705,9.354,4.626a.5.5,0,0,1-.707-.707L11.921.644a.5.5,0,0,1,.707,0L15.9,3.919a.5.5,0,0,1-.354.854Z" transform="translate(-0.148 -0.878)"/></g></g></svg>