<svg xmlns="http://www.w3.org/2000/svg" width="24.415" height="26.393" viewBox="0 0 24.415 26.393"><g transform="translate(-2047.293 -5455.293)"><path d="M.5-.5H3.036a1,1,0,0,1,1,1V3.036a1,1,0,0,1-1,1H.5a1,1,0,0,1-1-1V.5A1,1,0,0,1,.5-.5ZM3.036,3.036V.5H.5V3.036Z" transform="translate(2057 5458.5) rotate(-45)"/><path d="M.5-.5H3.036a1,1,0,0,1,1,1V3.036a1,1,0,0,1-1,1H.5a1,1,0,0,1-1-1V.5A1,1,0,0,1,.5-.5ZM3.036,3.036V.5H.5V3.036Z" transform="translate(2066 5467.5) rotate(-45)"/><path d="M.5-.5H3.036a1,1,0,0,1,1,1V3.036a1,1,0,0,1-1,1H.5a1,1,0,0,1-1-1V.5A1,1,0,0,1,.5-.5ZM3.036,3.036V.5H.5V3.036Z" transform="translate(2048 5467.5) rotate(-45)"/><path d="M0,7a.5.5,0,0,1-.354-.146.5.5,0,0,1,0-.707l6.5-6.5a.5.5,0,0,1,.707,0,.5.5,0,0,1,0,.707l-6.5,6.5A.5.5,0,0,1,0,7Z" transform="translate(2051.75 5459.75)"/><path d="M6.5,7a.5.5,0,0,1-.354-.146l-6.5-6.5a.5.5,0,0,1,0-.707.5.5,0,0,1,.707,0l6.5,6.5A.5.5,0,0,1,6.5,7Z" transform="translate(2060.75 5459.75)"/><g transform="translate(9.868 7.565)"><path d="M13.448,22.62a.25.25,0,0,1-.25-.25V20.646H9.75V22.37a.25.25,0,0,1-.5,0V20.4a.25.25,0,0,1,.25-.25h3.948a.25.25,0,0,1,.25.25V22.37A.25.25,0,0,1,13.448,22.62Z" transform="translate(2047.158 5451.5)"/><path d="M11.132,16.547A2.885,2.885,0,0,1,8.25,13.664c0-1.514,2.567-5.248,2.677-5.406a.25.25,0,0,1,.411,0c.109.158,2.677,3.89,2.677,5.407A2.885,2.885,0,0,1,11.132,16.547Zm0-7.7c-.817,1.226-2.382,3.786-2.382,4.819a2.382,2.382,0,0,0,4.764,0C13.514,12.629,11.949,10.07,11.132,8.846Z" transform="translate(2047.5 5455.603)"/><path d="M0,4.527a.25.25,0,0,1-.25-.25V0A.25.25,0,0,1,0-.25.25.25,0,0,1,.25,0V4.277A.25.25,0,0,1,0,4.527Z" transform="translate(2058.632 5464)"/></g><path d="M.5-.5H3.036a1,1,0,0,1,1,1V3.036a1,1,0,0,1-1,1H.5a1,1,0,0,1-1-1V.5A1,1,0,0,1,.5-.5ZM3.036,3.036V.5H.5V3.036Z" transform="translate(2057 5476.5) rotate(-45)"/><path d="M0,7a.5.5,0,0,1-.354-.146.5.5,0,0,1,0-.707l6.5-6.5a.5.5,0,0,1,.707,0,.5.5,0,0,1,0,.707l-6.5,6.5A.5.5,0,0,1,0,7Z" transform="translate(2060.75 5468.75)"/><path d="M6.5,7a.5.5,0,0,1-.354-.146l-6.5-6.5a.5.5,0,0,1,0-.707.5.5,0,0,1,.707,0l6.5,6.5A.5.5,0,0,1,6.5,7Z" transform="translate(2051.75 5468.75)"/></g></svg>